<svg id="Layer_1" data-name="Layer 1" xmlns="http://www.w3.org/2000/svg" xmlns:xlink="http://www.w3.org/1999/xlink" viewBox="0 0 739.34 125.29"><defs><style>.cls-1{fill:url(#linear-gradient);}.cls-2{fill:url(#linear-gradient-2);}.cls-3{fill:url(#linear-gradient-3);}.cls-4{fill:url(#linear-gradient-4);}.cls-5{fill:url(#linear-gradient-5);}.cls-6{fill:url(#linear-gradient-6);}.cls-7{fill:url(#linear-gradient-7);}.cls-8{fill:url(#linear-gradient-8);}</style><linearGradient id="linear-gradient" x1="9.22" y1="57.17" x2="704.8" y2="147.55" gradientUnits="userSpaceOnUse"><stop offset="0" stop-color="#eb118b"/><stop offset="0.5" stop-color="#f16469"/><stop offset="1" stop-color="#fab934"/></linearGradient><linearGradient id="linear-gradient-2" x1="11.04" y1="43.13" x2="706.63" y2="133.5" xlink:href="#linear-gradient"/><linearGradient id="linear-gradient-3" x1="12.8" y1="29.6" x2="708.38" y2="119.98" xlink:href="#linear-gradient"/><linearGradient id="linear-gradient-4" x1="14.33" y1="17.8" x2="709.92" y2="108.17" xlink:href="#linear-gradient"/><linearGradient id="linear-gradient-5" x1="15.75" y1="6.89" x2="711.33" y2="97.26" xlink:href="#linear-gradient"/><linearGradient id="linear-gradient-6" x1="19.38" y1="-21.09" x2="714.97" y2="69.29" xlink:href="#linear-gradient"/><linearGradient id="linear-gradient-7" x1="17.19" y1="-4.21" x2="712.78" y2="86.17" xlink:href="#linear-gradient"/><linearGradient id="linear-gradient-8" x1="17.87" y1="-9.46" x2="713.46" y2="80.91" xlink:href="#linear-gradient"/></defs><path class="cls-1" d="M29.31,101.92l35.9-78.55H73.4l35.91,78.55h-8.75l-33-73.72h3.37L38,101.92Zm14.14-21,2.46-6.74H91.58l2.47,6.74Z"/><path class="cls-2" d="M144.76,101.92V23.37h29.4a42,42,0,0,1,17.17,3.2,24.74,24.74,0,0,1,11,9.2,26.28,26.28,0,0,1,3.87,14.53,25.83,25.83,0,0,1-3.87,14.31,24.74,24.74,0,0,1-11,9.2A42,42,0,0,1,174.16,77h-24.8l3.71-3.82v28.73Zm8.31-28-3.71-3.93h24.58q11.77,0,17.89-5.16T198,50.3q0-9.42-6.12-14.58t-17.89-5.16H149.36l3.71-3.93Zm45.33,28.05-20.2-28.5h9l20.31,28.5Z"/><path class="cls-3" d="M248.33,101.92V23.37h33.88q13.13,0,20.37,5.28t7.23,14.92a18.72,18.72,0,0,1-3,10.77A18.45,18.45,0,0,1,298.76,61a27.34,27.34,0,0,1-11.16,2.25l1.91-2.7a33.25,33.25,0,0,1,13,2.3,18.67,18.67,0,0,1,8.47,6.85,19.9,19.9,0,0,1,3,11.28q0,10-7.35,15.48t-22.16,5.5Zm8.3-6.85h27.71q10.34,0,15.83-3.53t5.49-11.28c0-5.08-1.83-8.81-5.49-11.16s-8.94-3.54-15.83-3.54H255.73V58.72h25.92q9.44,0,14.64-3.59t5.22-10.66q0-7.19-5.22-10.72t-14.64-3.53h-25Z"/><path class="cls-4" d="M355.37,101.92V23.37h8.3v78.55Z"/><path class="cls-5" d="M427,101.92V30.56h-27.6V23.37h63.51v7.19h-27.6v71.36Z"/><path class="cls-6" d="M647.31,101.92V23.37h29.4a42,42,0,0,1,17.17,3.2,24.74,24.74,0,0,1,11,9.2A26.28,26.28,0,0,1,708.8,50.3a25.83,25.83,0,0,1-3.87,14.31,24.74,24.74,0,0,1-11,9.2A42,42,0,0,1,676.71,77h-24.8l3.71-3.82v28.73Zm8.31-28-3.71-3.93h24.58q11.78,0,17.89-5.16T700.5,50.3q0-9.42-6.12-14.58t-17.89-5.16H651.91l3.71-3.93ZM701,101.92l-20.2-28.5h9L710,101.92Z"/><path class="cls-7" d="M536.07,97.66a47.27,47.27,0,0,0,4.85,4.07,47.88,47.88,0,0,1-9.17.86,44.64,44.64,0,0,1-16.44-3,38.7,38.7,0,0,1-21.77-21.1,40.14,40.14,0,0,1-3.08-15.87,40.19,40.19,0,0,1,3.08-15.88,38.81,38.81,0,0,1,21.72-21.1,44.46,44.46,0,0,1,16.49-3,47.39,47.39,0,0,1,9.2.87,46.64,46.64,0,0,0-4.88,4.1c-.84.8-1.64,1.63-2.41,2.48a47.64,47.64,0,0,0-8.38,13.06,48.24,48.24,0,0,0-3.86,19.45,48.29,48.29,0,0,0,3.86,19.46,47.72,47.72,0,0,0,8.35,13C534.41,96,535.22,96.84,536.07,97.66Z"/><path class="cls-8" d="M611,46.78a38.71,38.71,0,0,0-21.65-21A44.14,44.14,0,0,0,573,22.79a44.71,44.71,0,0,0-16.4,2.95,43,43,0,0,0-4.18,1.91l-.1,0a37.7,37.7,0,0,0-7.29,5c-.55.47-1.09,1-1.61,1.48a39,39,0,0,0-8.64,12.68,36.44,36.44,0,0,0-1.35,3.71.57.57,0,0,0,0,.14,40.56,40.56,0,0,0-1.74,12,41.35,41.35,0,0,0,1.12,9.69l0,.12a36.29,36.29,0,0,0,2,6,38.91,38.91,0,0,0,8.64,12.68c.52.51,1.06,1,1.61,1.49a38.17,38.17,0,0,0,7.3,5l0,0a41.45,41.45,0,0,0,4.22,1.92,44.71,44.71,0,0,0,16.4,3,44.15,44.15,0,0,0,16.33-3,38.52,38.52,0,0,0,13-8.39A39,39,0,0,0,611,78.54a40.08,40.08,0,0,0,3.08-15.88A40.12,40.12,0,0,0,611,46.78Zm-7.59,28.83a31.8,31.8,0,0,1-6.9,10.32,30.89,30.89,0,0,1-10.43,6.84A34.75,34.75,0,0,1,573,95.19a35.11,35.11,0,0,1-13.12-2.42l-.22-.08c.54-.46,1.06-.94,1.56-1.43a38.14,38.14,0,0,0,8.64-12.68,40.4,40.4,0,0,0,3.09-15.93,40.49,40.49,0,0,0-3.09-15.94A38.24,38.24,0,0,0,561.2,34c-.5-.49-1-1-1.55-1.42l.21-.09A35.1,35.1,0,0,1,573,30.11a34.75,34.75,0,0,1,13.08,2.41,30.89,30.89,0,0,1,10.43,6.84,31.74,31.74,0,0,1,6.9,10.33,33.08,33.08,0,0,1,2.47,13A33.15,33.15,0,0,1,603.39,75.61Z"/></svg>