<svg id="Layer_1" data-name="Layer 1" xmlns="http://www.w3.org/2000/svg" xmlns:xlink="http://www.w3.org/1999/xlink" viewBox="0 0 390.72 390.72"><defs><style>.cls-1{fill:#121230;}.cls-2{fill:url(#linear-gradient);}.cls-3{fill:url(#linear-gradient-2);}</style><linearGradient id="linear-gradient" x1="-706.53" y1="82.67" x2="465.92" y2="235.01" gradientUnits="userSpaceOnUse"><stop offset="0" stop-color="#eb118b"/><stop offset="0.5" stop-color="#f16469"/><stop offset="1" stop-color="#fab934"/></linearGradient><linearGradient id="linear-gradient-2" x1="-705.38" y1="73.81" x2="467.07" y2="226.15" xlink:href="#linear-gradient"/></defs><circle class="cls-1" cx="195.36" cy="195.36" r="195.36"/><path class="cls-2" d="M168.07,254.37a78.68,78.68,0,0,0,8.17,6.86,79.88,79.88,0,0,1-15.45,1.46,75.19,75.19,0,0,1-27.71-5,65.21,65.21,0,0,1-36.69-35.56,71.46,71.46,0,0,1,0-53.52A65.41,65.41,0,0,1,133,133a74.92,74.92,0,0,1,27.8-5,79.61,79.61,0,0,1,15.5,1.47,78.39,78.39,0,0,0-8.22,6.9c-1.41,1.36-2.77,2.75-4.06,4.19a80.2,80.2,0,0,0-14.13,22,86,86,0,0,0,0,65.59A80.25,80.25,0,0,0,164,250.13Q165.93,252.32,168.07,254.37Z"/><path class="cls-3" d="M294.33,168.62a65.81,65.81,0,0,0-14.53-21.33,65,65,0,0,0-22-14.13,74.34,74.34,0,0,0-27.51-5,75.3,75.3,0,0,0-27.64,5,67.53,67.53,0,0,0-7.06,3.21l-.17-.09a64.6,64.6,0,0,0-12.28,8.44c-.93.81-1.83,1.64-2.72,2.51a65.58,65.58,0,0,0-14.56,21.37,63.52,63.52,0,0,0-2.27,6.24c0,.08-.05.17-.08.25a68.85,68.85,0,0,0-2.91,20.3,69.69,69.69,0,0,0,1.87,16.33,1.94,1.94,0,0,0,.05.2,62.74,62.74,0,0,0,3.34,10.2,65.69,65.69,0,0,0,14.56,21.37c.89.86,1.79,1.7,2.72,2.51a63.65,63.65,0,0,0,12.31,8.42l.09,0a69.64,69.64,0,0,0,7.11,3.23,75.1,75.1,0,0,0,27.64,5,74.14,74.14,0,0,0,27.51-5,65.15,65.15,0,0,0,36.5-35.46,71.48,71.48,0,0,0,0-53.53ZM281.54,217.2a53.63,53.63,0,0,1-11.63,17.4,51.81,51.81,0,0,1-17.59,11.54,58.5,58.5,0,0,1-22,4.07,59.32,59.32,0,0,1-22.13-4.07l-.36-.15c.9-.77,1.78-1.58,2.63-2.4A64.34,64.34,0,0,0,225,222.21a71.95,71.95,0,0,0,0-53.71,64.4,64.4,0,0,0-14.56-21.37c-.85-.82-1.73-1.63-2.62-2.41l.35-.14a59.32,59.32,0,0,1,22.13-4.07,58.5,58.5,0,0,1,22,4.07,52,52,0,0,1,17.59,11.54,53.63,53.63,0,0,1,11.63,17.4,59.41,59.41,0,0,1,0,43.68Z"/></svg>