<svg id="Layer_1" data-name="Layer 1" xmlns="http://www.w3.org/2000/svg" xmlns:xlink="http://www.w3.org/1999/xlink" viewBox="0 0 189.05 122.19"><defs><style>.cls-1{fill:url(#linear-gradient);}.cls-2{fill:url(#linear-gradient-2);}</style><linearGradient id="linear-gradient" x1="-440.55" y1="-5.76" x2="255.04" y2="84.61" gradientUnits="userSpaceOnUse"><stop offset="0" stop-color="#eb118b"/><stop offset="0.5" stop-color="#f16469"/><stop offset="1" stop-color="#fab934"/></linearGradient><linearGradient id="linear-gradient-2" x1="-439.86" y1="-11.02" x2="255.72" y2="79.36" xlink:href="#linear-gradient"/></defs><path class="cls-1" d="M78.33,96.1a45.83,45.83,0,0,0,4.85,4.07A47,47,0,0,1,74,101a44.48,44.48,0,0,1-16.44-3A38.67,38.67,0,0,1,35.81,77a40.05,40.05,0,0,1-3.09-15.88,40,40,0,0,1,3.09-15.87,38.84,38.84,0,0,1,21.71-21.1,44.5,44.5,0,0,1,16.49-3,47.32,47.32,0,0,1,9.2.87,47.6,47.6,0,0,0-4.88,4.09c-.83.81-1.64,1.64-2.41,2.49A47.35,47.35,0,0,0,63.69,61.11a48.32,48.32,0,0,0,3.85,19.46,47.52,47.52,0,0,0,8.36,13C76.67,94.45,77.49,95.29,78.33,96.1Z"/><path class="cls-2" d="M153.24,45.23a38.71,38.71,0,0,0-21.65-21,44.15,44.15,0,0,0-16.33-3,44.66,44.66,0,0,0-16.39,3,39.93,39.93,0,0,0-4.19,1.91l-.1-.06a38.32,38.32,0,0,0-7.29,5c-.55.48-1.08,1-1.61,1.49a39,39,0,0,0-10,16.38s0,.1,0,.15a40.84,40.84,0,0,0-1.73,12A41.47,41.47,0,0,0,75,70.8l0,.12a37.56,37.56,0,0,0,2,6,39.13,39.13,0,0,0,8.64,12.68c.53.51,1.06,1,1.61,1.49a37.75,37.75,0,0,0,7.31,5l.05,0A40.48,40.48,0,0,0,98.87,98a44.65,44.65,0,0,0,16.39,3,44.14,44.14,0,0,0,16.33-3,38.71,38.71,0,0,0,21.65-21,40,40,0,0,0,3.09-15.88A39.91,39.91,0,0,0,153.24,45.23Zm-7.59,28.82a31.59,31.59,0,0,1-6.9,10.32,30.76,30.76,0,0,1-10.43,6.85,34.69,34.69,0,0,1-13.07,2.41,35.15,35.15,0,0,1-13.13-2.41l-.21-.09c.53-.46,1-.93,1.56-1.43A38.19,38.19,0,0,0,112.11,77a40.58,40.58,0,0,0,3.08-15.93,40.58,40.58,0,0,0-3.08-15.93,38.29,38.29,0,0,0-8.64-12.68c-.51-.49-1-1-1.56-1.43l.21-.08a35.16,35.16,0,0,1,13.13-2.42A34.7,34.7,0,0,1,128.32,31a30.74,30.74,0,0,1,10.43,6.84,31.8,31.8,0,0,1,6.9,10.32,33.15,33.15,0,0,1,2.47,13A33.11,33.11,0,0,1,145.65,74.05Z"/></svg>