<svg viewBox="0 0 20 20" fill="none" xmlns="http://www.w3.org/2000/svg"><path d="M15.9952 7.49707C16.0169 7.32646 15.9736 7.15584 15.8462 7.02852L10.9668 2.17061C10.8387 2.04245 10.6689 2 10.4983 2.02164V2H5.0012C4.44691 2 4 2.44776 4 3.0012V16.9988C4 17.5531 4.44776 18 5.0012 18H15.0149C15.5691 18 16.0161 17.5522 16.0161 16.9988V8.00803L15.9952 7.49707ZM13.5018 15.9976H6.5142C6.23706 15.9976 6.024 15.7629 6.024 15.5074V4.49259C6.024 4.21544 6.2587 4.00239 6.5142 4.00239H9.49699C9.77414 4.00239 9.9872 4.23709 9.9872 4.49259L9.98636 7.43298C9.98636 7.75257 10.2419 8.00807 10.5614 8.00807H13.5018C13.779 8.00807 13.992 8.24277 13.992 8.49827V15.5074C14.0137 15.7845 13.779 15.9976 13.5018 15.9976H13.5018Z" fill="currentColor"></path></svg>