<svg viewBox="0 0 21 20" fill="none" xmlns="http://www.w3.org/2000/svg"><g clip-path="url(#clip0_2869_38449)"><g filter="url(#filter0_d_2869_38449)"><path d="M2.43171 15.7291C3.27667 16.9044 4.36052 17.8878 5.61219 18.6149C6.86385 19.3419 8.25507 19.7962 9.6946 19.9478C8.95397 18.8333 7.87744 17.808 6.53346 17.0273C5.18949 16.2467 3.7662 15.8203 2.43171 15.7291Z" fill="currentColor"></path><path d="M8.3394 13.9191C5.75009 12.4148 2.94757 12.0314 0.942289 12.7086C1.13587 13.3484 1.39118 13.9679 1.70461 14.5583C3.44686 14.518 5.3491 14.9912 7.11915 16.0193C8.88919 17.0473 10.243 18.4662 11.0714 20C11.7399 19.9795 12.4049 19.8943 13.057 19.7458C12.6516 17.6686 10.928 15.4237 8.3394 13.9191Z" fill="currentColor"></path><path d="M20.6783 7.81306C20.3491 6.474 19.7534 5.21502 18.9268 4.11127C18.1003 3.00753 17.0598 2.08167 15.8675 1.38897C14.6751 0.696271 13.3555 0.25094 11.9872 0.0795683C10.619 -0.091803 9.23024 0.0142997 7.90391 0.391541C10.1197 0.662708 12.5792 1.49451 14.9912 2.89577C17.4033 4.29703 19.3458 6.02132 20.6783 7.81306Z" fill="currentColor"></path><path d="M17.4544 12.724C16.3203 10.8404 14.3774 9.03676 11.984 7.64634C9.59057 6.25593 7.06194 5.46175 4.86582 5.40921C2.93375 5.36345 1.48368 5.92511 0.888467 6.94978C0.885078 6.95588 0.880332 6.96165 0.876604 6.96775C0.823048 7.15994 0.77695 7.35247 0.734919 7.54567C1.56605 7.21756 2.52903 7.03486 3.5998 7.01452C5.98099 6.96978 8.64589 7.73142 11.105 9.16014C13.5642 10.5889 15.5474 12.5274 16.6877 14.6174C17.1989 15.559 17.5178 16.4861 17.6443 17.3718C17.7914 17.2403 17.9358 17.1043 18.0757 16.963C18.0795 16.9565 18.0818 16.9498 18.0856 16.943C18.6808 15.9173 18.4506 14.3798 17.4544 12.724Z" fill="currentColor"></path><path d="M10.1631 10.7803C6.49789 8.65098 2.44766 8.31745 0.5 9.80345C0.503826 10.2686 0.539385 10.7329 0.606433 11.1932C1.17937 11.0195 1.76986 10.9101 2.36699 10.8671C4.54345 10.7034 6.94294 11.3098 9.12042 12.5755C11.2979 13.8411 13.0144 15.6261 13.9506 17.5965C14.2094 18.1363 14.4067 18.7034 14.539 19.2872C14.9722 19.1174 15.3933 18.9184 15.7996 18.6916C16.1257 16.2633 13.8292 12.91 10.1631 10.7803Z" fill="currentColor"></path><path d="M19.3396 9.57131C18.1926 7.68974 16.2327 5.88106 13.8224 4.48149C11.4121 3.08193 8.87359 2.2752 6.67036 2.21046C4.99081 2.16199 3.68988 2.56908 3.01536 3.33818C5.81618 2.86364 9.5105 3.66121 13.0913 5.7414C16.672 7.8216 19.1959 10.6363 20.1701 13.3043C20.504 12.3379 20.2135 11.0061 19.3396 9.57131Z" fill="currentColor"></path></g></g><defs><filter id="filter0_d_2869_38449" x="-19.5" y="-18" width="60.1787" height="60" filterUnits="userSpaceOnUse" color-interpolation-filters="sRGB"><feFlood flood-opacity="0" result="BackgroundImageFix"></feFlood><feColorMatrix in="SourceAlpha" type="matrix" values="0 0 0 0 0 0 0 0 0 0 0 0 0 0 0 0 0 0 127 0" result="hardAlpha"></feColorMatrix><feOffset dy="2"></feOffset><feGaussianBlur stdDeviation="10"></feGaussianBlur><feComposite in2="hardAlpha" operator="out"></feComposite><feColorMatrix type="matrix" values="0 0 0 0 0 0 0 0 0 0 0 0 0 0 0 0 0 0 0.1 0"></feColorMatrix><feBlend mode="normal" in2="BackgroundImageFix" result="effect1_dropShadow_2869_38449"></feBlend><feBlend mode="normal" in="SourceGraphic" in2="effect1_dropShadow_2869_38449" result="shape"></feBlend></filter><clipPath id="clip0_2869_38449"><rect width="20" height="20" fill="white" transform="translate(0.5)"></rect></clipPath></defs></svg>