<svg width="20" height="20" viewBox="0 0 20 20" fill="none" xmlns="http://www.w3.org/2000/svg"><path d="M8.58946 1.98743C8.28499 1.98743 8.03589 2.23653 8.03589 2.541V16.9339C8.03589 17.2383 8.28499 17.4874 8.58946 17.4874H10.8037C11.1082 17.4874 11.3573 17.2383 11.3573 16.9339V2.541C11.3573 2.23653 11.1082 1.98743 10.8037 1.98743H8.58946Z" fill="currentColor"></path><path d="M14.1249 7.52307C13.8204 7.52307 13.5713 7.77217 13.5713 8.07664V16.9338C13.5713 17.2383 13.8204 17.4874 14.1249 17.4874H16.3391C16.6436 17.4874 16.8927 17.2383 16.8927 16.9338V8.07664C16.8927 7.77217 16.6436 7.52307 16.3391 7.52307H14.1249Z" fill="currentColor"></path><path d="M3.05357 13.0589C2.7491 13.0589 2.5 13.308 2.5 13.6125V16.9339C2.5 17.2384 2.7491 17.4875 3.05357 17.4875H5.26786C5.57233 17.4875 5.82143 17.2384 5.82143 16.9339V13.6125C5.82143 13.308 5.57233 13.0589 5.26786 13.0589H3.05357Z" fill="currentColor"></path></svg>